<?xml version="1.0" encoding="utf-8"?>
<!-- Generator: Adobe Illustrator 16.0.0, SVG Export Plug-In . SVG Version: 6.00 Build 0)  -->
<!DOCTYPE svg PUBLIC "-//W3C//DTD SVG 1.1//EN" "http://www.w3.org/Graphics/SVG/1.1/DTD/svg11.dtd">
<svg version="1.1" id="Calque_1" xmlns="http://www.w3.org/2000/svg" xmlns:xlink="http://www.w3.org/1999/xlink" x="0px" y="0px"
	 width="301.75px" height="341.75px" viewBox="0 0 301.75 341.75" enable-background="new 0 0 301.75 341.75" xml:space="preserve">
<g>
	<g>
		<path fill="#0E1466" stroke="#000000" d="M204.684,133.049c-1.408,0.165-2.059,0.309-2.709,0.308
			c-20.332-0.037-40.664,0.021-60.994-0.226c-4.234-0.051-5.399,1.321-5.356,5.425c0.188,17.998,0.067,35.999,0.11,53.998
			c0.004,1.632,0.142,3.331,0.611,4.88c1.831,6.039,6.44,9.639,12.908,9.673c21.498,0.113,42.998,0.132,64.496,0.008
			c3.553-0.021,5.083,0.765,5.03,4.677c-0.188,14.331-0.107,28.665-0.033,42.998c0.014,2.763-0.543,4.398-3.821,4.349
			c-24.139-0.364-48.324,0.192-72.405-1.163c-20.84-1.173-36.582-12.405-48.08-29.709c-7.85-11.813-10.219-24.938-10.197-38.834
			c0.091-56.999,0.015-113.998,0.146-170.997c0.009-4.085-1.033-5.411-5.281-5.429C57.5,12.917,40,12.917,18.612,13
			c-4.126,0.016-4.97,1.343-4.963,5.16c0.108,64.499,0.001,128.998,0.2,193.496c0.023,7.589,0.827,15.347,2.549,22.728
			c4.619,19.796,13.197,37.695,26.975,52.983c23.305,25.858,52.051,39.988,86.989,40.673c18.991,0.373,37.997-0.086,56.991,0.207
			c18.984,0.292,36.812-3.433,53.292-13.191c27.83-16.479,44.461-40.663,47.688-72.751c2.943-29.29-6.449-55.036-27.336-76.146
			c-2.689-2.718-2.66-4.672-0.721-7.702c8.008-12.506,12.9-26.294,14.203-41.005c2.195-24.797-3.875-47.669-19.365-67.317
			c-17.861-22.66-41.196-35.846-70.452-36.9c-14.646-0.527-29.328-0.127-43.995-0.122c-1.452,0.001-2.905,0.175-4.556,0.281
			c0,23.007,0,45.697,0,68.679c2.227,0,4.045,0,5.865,0c19.332-0.004,38.666-0.025,57.998,0.014
			c1.975,0.005,4.701-0.882,4.705,2.687C204.689,100.733,204.684,116.694,204.684,133.049z"/>
		<path fill-rule="evenodd" clip-rule="evenodd" fill="#0E1466" stroke="#000000" d="M79.109,13.006
			c4.248-0.042,5.29,1.344,5.281,5.429c-0.13,56.999-0.054,113.998-0.146,170.997c-0.022,13.896,2.347,27.021,10.197,38.834
			c11.498,17.304,27.24,28.536,48.08,29.709c24.081,1.355,48.266,0.799,72.405,1.163c3.278,0.05,3.835-1.586,3.821-4.349
			c-0.096-18.54-0.101-32.77,0.033-42.998c0.053-3.912-1.478-4.697-5.03-4.677c-21.498,0.124-42.998,0.105-64.496-0.008
			c-6.468-0.034-11.078-3.634-12.908-9.673c-0.47-1.549-0.607-3.248-0.611-4.88c-0.042-17.999,0.078-36-0.11-53.998
			c-0.043-4.104,1.122-5.476,5.356-5.425c20.33,0.247,40.662,0.188,60.994,0.226c0.65,0.001,1.301-0.143,2.709-0.308
			c0-16.354,0.006-32.315-0.004-48.277c-0.004-3.568-2.73-2.682-4.705-2.687c-19.332-0.039-38.666-0.018-57.998-0.014
			c-1.819,0-3.638,0-5.865,0c0-22.981,0-45.672,0-68.679c1.651-0.106,3.104-0.28,4.556-0.281
			c14.667-0.005,29.348-0.405,43.995,0.122c29.256,1.055,52.591,14.24,70.452,36.9c15.49,19.648,21.561,42.521,19.365,67.317
			c-1.303,14.711-6.195,28.499-14.203,41.005c-1.939,3.03-1.969,4.984,0.721,7.702c20.887,21.11,30.279,46.856,27.336,76.146
			c-3.227,32.088-19.857,56.271-47.688,72.751c-16.48,9.759-34.308,13.483-53.292,13.191c-18.994-0.293-38,0.166-56.991-0.207
			c-34.938-0.685-63.684-14.814-86.989-40.673c-13.778-15.288-22.356-33.188-26.975-52.983c-1.722-7.381-2.526-15.139-2.549-22.728
			c-0.199-64.498-0.092-128.997-0.2-193.496c-0.007-3.817,0.836-5.175,4.963-5.16"/>
	</g>
</g>
<path fill="none" stroke="#0E1466" stroke-width="3" d="M298.77,329.873c0,4.644-2.632,8.406-5.879,8.406H9.109
	c-3.247,0-5.879-3.763-5.879-8.406V11.626c0-4.642,2.632-8.405,5.879-8.405h283.782c3.247,0,5.879,3.763,5.879,8.405V329.873z"/>
<g>
	<g>
		<path fill="#0E1466" stroke="#000000" d="M526.203,132.049c-1.408,0.165-2.059,0.309-2.709,0.308
			c-20.332-0.037-40.664,0.021-60.994-0.226c-4.234-0.051-5.398,1.321-5.355,5.425c0.188,17.998,0.067,35.999,0.109,53.998
			c0.004,1.632,0.143,3.331,0.611,4.88c1.831,6.039,6.441,9.639,12.908,9.673c21.498,0.113,42.998,0.132,64.496,0.008
			c3.553-0.021,5.083,0.765,5.03,4.677c-0.188,14.331-0.107,28.665-0.033,42.998c0.014,2.763-0.543,4.398-3.821,4.349
			c-24.139-0.364-48.324,0.192-72.404-1.163c-20.841-1.173-36.582-12.405-48.08-29.709c-7.851-11.813-10.22-24.938-10.197-38.834
			c0.092-56.999,0.016-113.998,0.146-170.997c0.009-4.085-1.033-5.411-5.28-5.429C379.02,11.917,361.52,11.917,340.131,12
			c-4.126,0.016-4.969,1.343-4.963,5.16c0.109,64.499,0.002,128.998,0.201,193.496c0.023,7.589,0.826,15.347,2.549,22.728
			c4.619,19.796,13.197,37.695,26.975,52.983c23.305,25.858,52.052,39.988,86.989,40.673c18.991,0.373,37.997-0.086,56.991,0.207
			c18.984,0.292,36.812-3.433,53.292-13.191c27.83-16.479,44.461-40.663,47.688-72.751c2.943-29.29-6.449-55.036-27.336-76.146
			c-2.689-2.718-2.66-4.672-0.721-7.702c8.008-12.506,12.9-26.294,14.203-41.005c2.195-24.797-3.875-47.669-19.365-67.317
			c-17.861-22.66-41.196-35.846-70.452-36.9c-14.646-0.527-29.328-0.127-43.994-0.122c-1.453,0.001-2.905,0.175-4.557,0.281
			c0,23.007,0,45.697,0,68.679c2.227,0,4.046,0,5.865,0c19.332-0.004,38.666-0.025,57.998,0.014
			c1.975,0.005,4.701-0.882,4.705,2.687C526.209,99.733,526.203,115.694,526.203,132.049z"/>
		<path fill-rule="evenodd" clip-rule="evenodd" fill="#0E1466" stroke="#000000" d="M400.629,12.006
			c4.247-0.042,5.289,1.344,5.28,5.429c-0.13,56.999-0.054,113.998-0.146,170.997c-0.022,13.896,2.347,27.021,10.197,38.834
			c11.498,17.304,27.239,28.536,48.08,29.709c24.08,1.355,48.266,0.799,72.404,1.163c3.278,0.05,3.835-1.586,3.821-4.349
			c-0.096-18.54-0.101-32.77,0.033-42.998c0.053-3.912-1.478-4.697-5.03-4.677c-21.498,0.124-42.998,0.105-64.496-0.008
			c-6.467-0.034-11.077-3.634-12.908-9.673c-0.469-1.549-0.607-3.248-0.611-4.88c-0.042-17.999,0.078-36-0.109-53.998
			c-0.043-4.104,1.121-5.476,5.355-5.425c20.33,0.247,40.662,0.188,60.994,0.226c0.65,0.001,1.301-0.143,2.709-0.308
			c0-16.354,0.006-32.315-0.004-48.277c-0.004-3.568-2.73-2.682-4.705-2.687c-19.332-0.039-38.666-0.018-57.998-0.014
			c-1.819,0-3.639,0-5.865,0c0-22.981,0-45.672,0-68.679c1.651-0.106,3.104-0.28,4.557-0.281
			c14.666-0.005,29.348-0.405,43.994,0.122c29.256,1.055,52.591,14.24,70.452,36.9c15.49,19.648,21.561,42.521,19.365,67.317
			c-1.303,14.711-6.195,28.499-14.203,41.005c-1.939,3.03-1.969,4.984,0.721,7.702c20.887,21.11,30.279,46.856,27.336,76.146
			c-3.227,32.088-19.857,56.271-47.688,72.751c-16.48,9.759-34.308,13.483-53.292,13.191c-18.994-0.293-38,0.166-56.991-0.207
			c-34.938-0.685-63.685-14.814-86.989-40.673c-13.777-15.288-22.355-33.188-26.975-52.983c-1.723-7.381-2.525-15.139-2.549-22.728
			c-0.199-64.498-0.092-128.997-0.201-193.496c-0.006-3.817,0.837-5.175,4.963-5.16"/>
	</g>
</g>
</svg>
